<?xml version="1.0" encoding="UTF-8" standalone="no"?>
<!-- Created with Inkscape (http://www.inkscape.org/) -->

<svg
   width="50.653469mm"
   height="31.877916mm"
   viewBox="0 0 50.653469 31.877916"
   version="1.1"
   id="svg1"
   xmlns="http://www.w3.org/2000/svg"
   xmlns:svg="http://www.w3.org/2000/svg">
  <defs
     id="defs1" />
  <g
     id="layer1"
     transform="translate(-66.232823,-41.395418)">
    <path
       style="font-weight:bold;font-size:22.5778px;line-height:0.7;font-family:Corbel;-inkscape-font-specification:'Corbel Bold';letter-spacing:-0.79375px;word-spacing:-1.08744px;white-space:pre;fill:#ffffff;fill-opacity:1;stroke:none;stroke-width:0.264583"
       d="m 73.949845,52.188225 c 0,-0.374827 -0.09187,-0.676159 -0.275608,-0.903994 -0.183739,-0.235186 -0.433623,-0.426274 -0.749654,-0.573265 -0.316031,-0.146991 -0.672484,-0.264583 -1.069359,-0.352778 -0.389525,-0.09554 -0.8011,-0.187413 -1.234723,-0.275608 -0.573265,-0.124942 -1.120806,-0.271933 -1.642623,-0.440973 -0.521818,-0.176389 -0.981165,-0.415249 -1.37804,-0.71658 -0.396875,-0.308681 -0.712906,-0.698207 -0.948091,-1.168578 -0.235185,-0.470371 -0.352778,-1.058334 -0.352778,-1.76389 0,-0.779052 0.135966,-1.45521 0.407899,-2.028475 0.271933,-0.580614 0.639411,-1.058334 1.102432,-1.433161 0.470371,-0.382176 1.017912,-0.665133 1.642623,-0.848872 0.632061,-0.191089 1.341292,-0.286633 2.127693,-0.286633 0.786401,0 1.576478,0.07717 2.370229,0.231511 0.793751,0.154341 1.477258,0.352778 2.050522,0.595313 v 2.315107 c -0.764352,-0.301331 -1.499306,-0.518143 -2.204863,-0.650435 -0.698207,-0.139641 -1.355991,-0.209462 -1.973353,-0.209462 -0.889295,0 -1.576477,0.16169 -2.061547,0.48507 -0.47772,0.32338 -0.71658,0.80845 -0.71658,1.45521 0,0.374827 0.07717,0.683507 0.23151,0.926042 0.16169,0.242535 0.378502,0.444648 0.650435,0.606338 0.271933,0.15434 0.584289,0.279282 0.937067,0.374827 0.352778,0.09554 0.727605,0.183738 1.12448,0.264583 0.624711,0.132292 1.220024,0.286632 1.785939,0.463021 0.573265,0.16904 1.080383,0.4079 1.521356,0.716581 0.440973,0.308681 0.790076,0.712906 1.04731,1.212675 0.257234,0.492419 0.385851,1.12448 0.385851,1.896182 0,0.793751 -0.146991,1.480934 -0.440972,2.061548 -0.293982,0.580614 -0.712906,1.062009 -1.256772,1.444185 -0.536517,0.374827 -1.190627,0.654109 -1.962329,0.837848 -0.771702,0.183739 -1.6169,0.275608 -2.535593,0.275608 -0.8011,0 -1.591176,-0.08084 -2.370228,-0.242535 -0.771702,-0.154341 -1.414787,-0.374827 -1.929255,-0.661459 v -2.282033 c 0.727605,0.31603 1.436836,0.547541 2.127693,0.694532 0.690857,0.139641 1.403763,0.209462 2.138717,0.209462 0.426274,0 0.845198,-0.03307 1.256773,-0.09922 0.411574,-0.0735 0.779051,-0.194763 1.102431,-0.363803 0.330729,-0.169039 0.595313,-0.396875 0.793751,-0.683507 0.198438,-0.293982 0.297657,-0.654109 0.297657,-1.080382 z m 12.159822,-8.510773 c -0.734955,0 -1.414787,0.121267 -2.039498,0.363802 -0.617362,0.242535 -1.150204,0.595314 -1.598526,1.058335 -0.440973,0.463021 -0.786401,1.036286 -1.036286,1.719793 -0.249885,0.676158 -0.374827,1.451535 -0.374827,2.326131 0,0.867247 0.113918,1.631599 0.341754,2.293058 0.227836,0.654109 0.554891,1.20165 0.981164,1.642623 0.426273,0.440973 0.944416,0.775377 1.554429,1.003213 0.617361,0.220487 1.315568,0.33073 2.09462,0.33073 0.558565,0 1.128155,-0.0441 1.708769,-0.132292 0.580614,-0.08819 1.12448,-0.216812 1.631599,-0.385851 v 2.32613 c -0.514468,0.146991 -1.069359,0.260909 -1.664672,0.341754 -0.595313,0.08819 -1.212675,0.132292 -1.852085,0.132292 -1.249423,0 -2.34818,-0.176389 -3.296271,-0.529167 -0.948091,-0.360128 -1.741842,-0.863572 -2.381252,-1.510331 -0.632061,-0.65411 -1.109781,-1.433162 -1.433161,-2.337156 -0.316031,-0.911343 -0.474046,-1.914556 -0.474046,-3.009638 0,-1.124481 0.16904,-2.168116 0.507119,-3.130906 0.345428,-0.962791 0.837847,-1.796964 1.477258,-2.50252 0.64676,-0.705556 1.451535,-1.260447 2.414325,-1.664672 0.97014,-0.404225 2.065222,-0.610012 3.285247,-0.617362 0.624711,0 1.21635,0.0441 1.774915,0.132292 0.558565,0.08085 1.062009,0.198438 1.510331,0.352778 v 2.293058 C 88.65261,43.989807 88.105069,43.86119 87.59795,43.787695 87.090831,43.7142 86.594737,43.677452 86.109667,43.677452 Z M 99.77982,52.66227 h -5.556256 m 4.178216,-3.571878 c -0.403734,-1.043825 -0.863571,-2.333481 -1.378039,-3.869536 h -0.0441 c -0.514468,1.543405 -0.973814,2.83325 -1.378039,3.869536 l -1.37804,3.571878 -1.444185,3.759292 H 89.90203 l 5.853912,-14.750536 h 2.469447 l 5.853911,14.750536 h -2.85529 L 99.77982,52.66227 Z m 15.53112,2.201904 -0.13229,-9.645284 h 2.70095 v 14.750536 h -2.83324 l -5.65338,-9.536239 0.0662,9.560253 h -2.70096 V 41.671026 h 2.83325 z M 73.949845,68.764387 c 0,-0.374827 -0.09187,-0.676158 -0.275608,-0.903994 -0.183739,-0.235185 -0.433623,-0.426273 -0.749654,-0.573264 -0.316031,-0.146991 -0.672484,-0.264584 -1.069359,-0.352779 -0.389525,-0.09554 -0.8011,-0.187413 -1.234723,-0.275608 -0.573265,-0.124942 -1.120806,-0.271933 -1.642623,-0.440972 -0.521818,-0.176389 -0.981165,-0.41525 -1.37804,-0.716581 -0.396875,-0.308681 -0.712906,-0.698206 -0.948091,-1.168577 -0.235185,-0.470371 -0.352778,-1.058335 -0.352778,-1.763891 0,-0.779052 0.135966,-1.45521 0.407899,-2.028474 0.271933,-0.580614 0.639411,-1.058335 1.102432,-1.433162 0.470371,-0.382176 1.017912,-0.665133 1.642623,-0.848872 0.632061,-0.191088 1.341292,-0.286632 2.127693,-0.286632 0.786401,0 1.576478,0.07717 2.370229,0.231511 0.793751,0.15434 1.477258,0.352778 2.050522,0.595313 v 2.315106 c -0.764352,-0.301331 -1.499306,-0.518143 -2.204863,-0.650435 -0.698207,-0.139641 -1.355991,-0.209462 -1.973353,-0.209462 -0.889295,0 -1.576477,0.16169 -2.061547,0.48507 -0.47772,0.32338 -0.71658,0.80845 -0.71658,1.45521 0,0.374827 0.07717,0.683508 0.23151,0.926043 0.16169,0.242535 0.378502,0.444647 0.650435,0.606337 0.271933,0.154341 0.584289,0.279283 0.937067,0.374827 0.352778,0.09554 0.727605,0.183739 1.12448,0.264584 0.624711,0.132291 1.220024,0.286632 1.785939,0.463021 0.573265,0.169039 1.080383,0.407899 1.521356,0.71658 0.440973,0.308681 0.790076,0.712906 1.04731,1.212675 0.257234,0.49242 0.385851,1.124481 0.385851,1.896183 0,0.793751 -0.146991,1.480933 -0.440972,2.061547 -0.293982,0.580614 -0.712906,1.062009 -1.256772,1.444186 -0.536517,0.374827 -1.190627,0.654109 -1.962329,0.837848 -0.771702,0.183739 -1.6169,0.275608 -2.535593,0.275608 -0.8011,0 -1.591176,-0.08084 -2.370228,-0.242535 -0.771702,-0.154341 -1.414787,-0.374827 -1.929255,-0.661459 v -2.282034 c 0.727605,0.316031 1.436836,0.547541 2.127693,0.694532 0.690857,0.139641 1.403763,0.209462 2.138717,0.209462 0.426274,0 0.845198,-0.03307 1.256773,-0.09922 0.411574,-0.07349 0.779051,-0.194763 1.102431,-0.363802 0.330729,-0.16904 0.595313,-0.396876 0.793751,-0.683508 0.198438,-0.293982 0.297657,-0.65411 0.297657,-1.080383 z m 12.049579,-3.097833 c -0.404225,-1.043635 -0.863571,-2.33348 -1.37804,-3.869535 h -0.0441 c -0.514468,1.543404 -0.973814,2.833249 -1.378039,3.869535 l -1.378037,3.571879 -1.444186,3.759292 h -2.877346 l 5.853912,-14.750536 h 2.469447 l 5.853912,14.750536 H 88.821649 L 87.377464,69.238433 Z M 97.2332,69.392773 c 0.271933,-0.8011 0.466696,-1.37069 0.584289,-1.708769 0.124942,-0.345429 0.382176,-1.04731 0.771702,-2.105645 l 2.734029,-7.33117 h 2.8553 l -5.765718,14.750536 h -2.42535 L 90.221738,58.247189 h 2.877346 l 2.734031,7.33117 c 0.389526,1.058335 0.643085,1.760216 0.760678,2.105645 0.124942,0.338079 0.32338,0.907669 0.595313,1.708769 z m 10.83691,1.344967 h 8.81618 v 2.259985 H 105.36915 V 58.247189 h 11.12026 v 2.259985 h -8.4193 v 3.814413 h 6.87183 v 2.259985 h -6.87183 z"
       id="text1"
       aria-label="SCAN&#10;SAVE" />
    <path
       style="font-weight:bold;font-size:13.849px;line-height:0.7;font-family:Consolas;-inkscape-font-specification:'Consolas Bold';letter-spacing:-0.486878px;word-spacing:-0.667023px;fill:#ffffff;fill-opacity:1;stroke:none;stroke-width:0.162293"
       d="m 98.919279,57.517085 c 0,0.572533 -0.05861,1.097731 -0.175817,1.575594 -0.117211,0.477863 -0.288521,0.90839 -0.513928,1.291582 l 0.557118,0.723857 -1.071046,1.020792 -0.480116,-0.58155 c -0.306553,0.243439 -0.646918,0.428273 -1.021093,0.554501 -0.374176,0.12172 -0.773146,0.18258 -1.196911,0.18258 -0.468847,0 -0.885849,-0.05861 -1.251008,-0.175818 -0.365159,-0.121719 -0.673967,-0.293028 -0.926423,-0.513927 -0.252455,-0.220899 -0.444051,-0.486879 -0.574787,-0.797941 -0.130736,-0.315569 -0.196104,-0.66495 -0.196104,-1.048142 0,-0.324586 0.04283,-0.617615 0.128482,-0.879087 0.08565,-0.261472 0.200612,-0.495895 0.344872,-0.703269 0.144261,-0.211883 0.311062,-0.39897 0.500403,-0.561263 0.189342,-0.166801 0.389954,-0.320078 0.601837,-0.459831 l -0.135244,-0.182579 c -0.252456,-0.311061 -0.44856,-0.628885 -0.588312,-0.953471 -0.135244,-0.329094 -0.202866,-0.649172 -0.202866,-0.960234 0,-0.315569 0.05635,-0.617614 0.169055,-0.906135 0.112703,-0.293029 0.27725,-0.549993 0.493641,-0.770892 0.220899,-0.225407 0.491387,-0.405732 0.811465,-0.540977 0.320077,-0.135244 0.68749,-0.202866 1.102239,-0.202866 0.392208,0 0.741589,0.05635 1.048142,0.169055 0.306554,0.108195 0.565772,0.256964 0.777654,0.446306 0.211883,0.184834 0.371922,0.403479 0.480117,0.655934 0.112703,0.252456 0.169055,0.52069 0.169055,0.804703 0,0.351635 -0.05861,0.660442 -0.175817,0.926422 -0.117212,0.261472 -0.272743,0.493641 -0.466593,0.696507 -0.189341,0.198359 -0.407986,0.37643 -0.655934,0.534215 -0.243439,0.153277 -0.493641,0.302045 -0.750605,0.446305 l 1.487686,1.832559 c 0.06311,-0.229915 0.110449,-0.480117 0.142006,-0.750605 0.03156,-0.270489 0.04283,-0.561264 0.03381,-0.872325 z m -5.220423,2.089522 c 0,0.198358 0.03381,0.380938 0.101433,0.547739 0.06762,0.162293 0.162293,0.304299 0.284012,0.426019 0.126228,0.117211 0.277251,0.209628 0.453068,0.27725 0.175817,0.06311 0.371921,0.09467 0.588312,0.09467 0.238931,0 0.464338,-0.03607 0.676221,-0.108195 0.216391,-0.07213 0.412495,-0.184834 0.588312,-0.338111 l -1.940753,-2.380296 c -0.225407,0.189341 -0.407987,0.401224 -0.547739,0.635647 -0.135244,0.229915 -0.202866,0.511674 -0.202866,0.845276 z m 2.508778,-4.760594 c 0,-0.117211 -0.02254,-0.232169 -0.06762,-0.344872 -0.04057,-0.117212 -0.101433,-0.218645 -0.182579,-0.3043 -0.08115,-0.09016 -0.180326,-0.162293 -0.297537,-0.21639 -0.117212,-0.0541 -0.252456,-0.08115 -0.405733,-0.08115 -0.153277,0 -0.290775,0.0293 -0.412494,0.08791 -0.12172,0.0541 -0.225407,0.128484 -0.311062,0.223153 -0.08115,0.09467 -0.144261,0.20512 -0.189342,0.331348 -0.04057,0.126228 -0.06086,0.259218 -0.06086,0.39897 0,0.243439 0.05861,0.475608 0.175818,0.696507 0.117211,0.216391 0.27725,0.450814 0.480116,0.70327 l 0.01353,0.02705 c 0.171309,-0.103687 0.333602,-0.207375 0.486879,-0.311062 0.153277,-0.108195 0.286267,-0.223153 0.39897,-0.344872 0.117211,-0.12172 0.207374,-0.252456 0.270488,-0.392208 0.06762,-0.144261 0.101433,-0.302046 0.101433,-0.473355 z"
       id="text2"
       transform="scale(1.0189272,0.98142441)"
       aria-label="&amp;" />
  </g>
</svg>
